PathFileType	4	(X/Y/Z)	c:/Users/goper/Files/vsCode/490R/osim_files/C11/C11_Slow_02.trc
DataRate	CameraRate	NumFrames	NumMarkers	Units                	OrigDataRate	OrigDataStartFrame	OrigNumFrames
120.00	120.00	5	36	mm	120.0	823	1316
                Frame#	Time	LPSIS			LASIS			LTH1			LTH2			LTH3			LTH4			LLFE			LMFE			LSH1			LSH2			LSH3			LSH4			LLMAL			LMMAL			LCAL			LMTP5			LTOE			LMTP1			RPSIS			RASIS			RTH1			RTH2			RTH3			RTH4			RLFE			RMFE			RSH1			RSH2			RSH3			RSH4			RLMAL			RMMAL			RCAL			RMTP1			RTOE			RMTP5		
		X1	Y1	Z1	X2	Y2	Z2	X3	Y3	Z3	X4	Y4	Z4	X5	Y5	Z5	X6	Y6	Z6	X7	Y7	Z7	X8	Y8	Z8	X9	Y9	Z9	X10	Y10	Z10	X11	Y11	Z11	X12	Y12	Z12	X13	Y13	Z13	X14	Y14	Z14	X15	Y15	Z15	X16	Y16	Z16	X17	Y17	Z17	X18	Y18	Z18	X19	Y19	Z19	X20	Y20	Z20	X21	Y21	Z21	X22	Y22	Z22	X23	Y23	Z23	X24	Y24	Z24	X25	Y25	Z25	X26	Y26	Z26	X27	Y27	Z27	X28	Y28	Z28	X29	Y29	Z29	X30	Y30	Z30	X31	Y31	Z31	X32	Y32	Z32	X33	Y33	Z33	X34	Y34	Z34	X35	Y35	Z35	X36	Y36	Z36

823	6.85000	-1247.09631	979.38861	421.61765	-1431.00928	982.05005	467.34824	-1436.71204	588.96234	511.65857	-1458.17651	546.76843	508.58725	-1492.42371	609.41327	526.43640	-1505.59631	565.10944	518.28149	0.00000	0.00000	0.00000	-1506.46277	494.77698	511.51974	-1502.39233	380.24316	510.52054	-1523.86829	337.63849	504.67923	-1558.96887	400.55914	522.52734	-1571.89099	357.60272	518.03943	-1680.61865	103.17084	441.29822	-1697.07861	152.27065	358.88715	-1653.75488	55.45058	375.63672	-1805.63489	110.79394	472.93936	-1848.85535	185.37883	421.88486	-1827.34961	160.31790	368.87631	-1242.07190	996.56976	336.26443	-1398.48279	972.03723	237.36334	-1249.16663	628.35760	222.88942	-1246.06104	585.23358	231.23918	-1311.66113	616.79242	229.18916	-1298.56567	576.08081	235.18840	-1244.15295	496.84085	253.11612	-1229.19336	491.44754	367.61649	-1148.85242	406.65042	250.69406	-1140.19177	362.18771	257.20612	-1208.90271	388.33481	252.95523	-1190.88135	344.24127	257.80539	-1088.63159	103.65743	329.31140	-1118.37695	115.13388	423.26675	-1026.16724	73.29336	386.17105	-1240.83960	49.93326	400.90045	-1243.77747	59.80067	350.29117	-1198.11609	40.45836	290.85532
824	6.85833	-1256.20129	977.84662	421.23529	-1439.79504	980.47662	467.58408	-1448.51428	587.11096	507.86169	-1468.50220	545.76434	505.76077	-1502.50220	608.36072	524.69385	-1515.65417	564.16937	516.34552	0.00000	0.00000	0.00000	-1517.24512	494.00620	509.11429	-1511.89624	379.42691	507.09665	-1533.07922	336.49734	500.89597	-1568.73730	398.93518	520.02625	-1581.30188	355.82150	515.32397	-1687.71240	100.83667	438.01764	-1705.22522	150.12988	356.00879	-1661.59949	53.33842	371.87527	-1812.23315	108.14189	471.36288	-1856.14355	182.93399	421.07983	-1835.31934	158.12759	367.75882	-1251.28931	995.14966	335.85797	-1407.95251	970.60492	237.26912	-1257.27112	627.60089	222.67818	-1254.07959	584.45953	230.97601	-1319.74304	615.58997	229.11069	-1306.10767	574.80627	235.03755	-1251.42419	496.01648	252.89149	-1236.36877	490.91315	367.30612	-1154.92859	407.07089	250.23561	-1145.71997	362.79691	256.69583	-1214.73669	387.93372	252.73991	-1195.99646	344.06766	257.54111	-1089.54565	104.90223	328.80469	-1119.38672	116.48566	422.64124	-1026.69836	75.33633	385.71451	-1241.01636	49.87554	400.74896	-1244.62708	59.36341	350.55655	-1198.24182	40.41340	290.83838
825	6.86667	-1265.48755	976.39722	420.63132	-1448.96484	978.81628	467.78787	-1459.51147	586.32678	505.57288	-1479.63733	544.96570	503.13589	-1513.19373	607.62994	522.99518	-1526.62708	563.64044	514.34930	0.00000	0.00000	0.00000	-1528.80359	493.47940	506.52213	-1521.86108	378.59442	504.05280	-1542.51318	335.62817	497.64938	-1578.96729	397.34824	517.54810	-1590.91064	354.04437	512.62256	-1692.81226	98.38272	434.81644	-1712.14966	147.04604	352.97986	-1667.07703	50.79055	368.47131	-1816.81958	104.08359	469.93240	-1862.74866	177.79428	419.95038	-1842.35803	152.96577	366.40869	-1260.71582	993.79950	335.35043	-1417.52991	969.17950	237.03795	-1265.85254	626.72601	222.48369	-1262.27344	583.69312	230.81284	-1328.12842	614.54584	228.94872	-1314.66370	573.90625	234.89658	-1259.20325	495.18195	252.55836	-1243.72937	490.30194	366.90689	-1161.46912	407.59888	249.67435	-1151.43005	363.55292	256.11493	-1220.83105	387.52011	252.46016	-1201.42737	343.99649	257.18158	-1091.01147	106.05895	328.47540	-1120.39490	117.87894	422.08890	-1027.49463	77.44787	385.26364	-1241.24182	49.75969	400.56625	-1245.03906	59.08516	350.32925	-1198.40808	40.35097	290.77579
826	6.87500	-1275.12256	975.02747	419.97580	-1458.27161	977.25873	467.89566	-1470.74707	585.75220	503.55121	-1491.47754	544.50171	500.83652	-1524.53040	607.31042	521.16571	-1538.34680	563.29852	512.28296	0.00000	0.00000	0.00000	-1540.57324	493.02710	503.80890	-1531.70801	378.11832	501.39301	-1552.23694	334.75772	494.82004	-1589.43591	395.98032	514.76440	-1600.66345	352.46964	509.71747	-1696.30444	95.63093	431.66919	-1717.96008	142.97252	349.91348	-1670.16394	48.13987	365.48044	-1819.65173	98.72250	468.58881	-1868.58936	170.59068	418.58597	-1848.36548	145.54448	364.93881	-1270.29431	992.49310	334.79453	-1427.19788	967.83582	236.78954	-1274.54138	625.83258	222.31769	-1270.78027	582.80505	230.58043	-1336.84521	613.40405	228.82864	-1323.11731	572.88251	234.67848	-1267.31616	494.24561	252.29369	-1251.91650	489.48965	366.61673	-1168.35852	408.12689	249.18776	-1157.55396	364.21133	255.53044	-1227.35010	387.12201	252.20038	-1207.30334	343.82022	256.83051	-1091.58167	107.95136	327.67633	-1121.71741	119.39469	421.43127	-1028.18970	80.06267	384.58099	-1241.48840	49.65618	400.45743	-1245.52283	58.75983	350.10431	-1198.60266	40.27445	290.70633
827	6.88333	-1285.06238	973.74823	419.27750	-1468.04712	975.75836	467.88803	-1481.89795	585.15717	501.96906	-1503.71313	544.19727	498.70724	-1536.35400	607.04797	519.28589	-1550.42041	563.23462	510.12463	0.00000	0.00000	0.00000	-1552.79150	492.66791	501.18295	-1541.78894	377.65530	498.85352	-1561.70837	334.15717	492.29794	-1599.96289	394.73138	511.89713	-1610.39001	351.06494	506.85696	-1697.37708	94.47247	429.62451	-1722.71948	139.24480	346.87827	-1671.02710	46.69410	363.04895	-1821.52136	92.53954	467.27899	-1873.34180	161.93526	416.84683	-1852.81860	136.90199	363.00421	-1280.11646	991.30005	334.14969	-1437.13831	966.54474	236.45901	-1283.54700	624.85474	222.12604	-1279.57849	581.86383	230.36668	-1345.65686	612.30359	228.66080	-1331.86487	571.79407	234.51601	-1275.64294	493.30023	252.01344	-1260.39990	488.58948	366.29245	-1175.56177	408.75769	248.68201	-1163.85620	365.01581	254.98309	-1234.21741	386.72104	251.92488	-1213.30859	343.76764	256.47849	-1093.27576	109.46472	327.26657	-1122.95093	121.17545	420.71933	-1029.12720	82.82939	384.05225	-1241.73145	49.55027	400.32272	-1246.10046	58.42389	349.86838	-1198.80676	40.26208	290.64026
